<svg width="537" height="445" viewBox="0 0 537 445" fill="none" xmlns="http://www.w3.org/2000/svg">
<path d="M230.5 91.5V112V283.5C230.5 290.127 235.873 295.5 242.5 295.5H295.5C302.127 295.5 307.5 300.873 307.5 307.5V432C307.5 438.627 312.873 444 319.5 444H524.5C531.127 444 536.5 438.627 536.5 432V274C536.5 267.373 531.127 262 524.5 262H480.5C473.873 262 468.5 267.373 468.5 274V355.451C468.5 362.098 463.098 367.478 456.451 367.451L366.951 367.089C360.343 367.062 355 361.697 355 355.089V103.089C355 96.4428 360.402 91.0624 367.049 91.0893L456.549 91.4516C463.157 91.4784 468.5 96.8431 468.5 103.452V164.5C468.5 171.127 473.873 176.5 480.5 176.5H524.5C531.127 176.5 536.5 171.127 536.5 164.5V13C536.5 6.37258 531.127 1 524.5 1H338.5C331.873 1 326.5 6.37258 326.5 13V79.5C326.5 86.1274 321.127 91.5 314.5 91.5H248.5H230.5Z" fill="#0B0B0B"/>
<path d="M1 432C1 438.627 6.37258 444 13 444H111C117.627 444 123 438.627 123 432V108.5V91.5L13.0492 91.0494C6.4026 91.0221 1 96.4027 1 103.049V432Z" fill="#0B0B0B"/>
<path d="M123 91.5V108.5C123 104 136 91.5168 140.5 91.5H123Z" fill="#0B0B0B"/>
<path d="M230.5 13C230.5 6.37258 225.127 1 218.5 1H135C128.373 1 123 6.37258 123 13V75.5V91.5H140.5H208.5H230.5V72V67.5V13Z" fill="#0B0B0B"/>
<path d="M102.5 91.416L123 91.5V75.5C123 84.5 100.812 91.4091 102.5 91.416Z" fill="#0B0B0B"/>
<path d="M230.5 91.5H208.5C219.5 91.5 230.5 102 230.5 112V91.5Z" fill="#0B0B0B"/>
<path d="M230.5 72V91.5H248.5C239.5 91.5 230.5 82 230.5 72Z" fill="#0B0B0B"/>
<path d="M123 91.5L13.0492 91.0494C6.4026 91.0221 1 96.4027 1 103.049V432C1 438.627 6.37258 444 13 444H111C117.627 444 123 438.627 123 432V108.5M123 91.5V108.5M123 91.5H140.5M123 91.5V75.5M123 91.5C123 91.5 104.188 91.4229 102.5 91.416M123 91.5L102.5 91.416M230.5 91.5H208.5M230.5 91.5V112M230.5 91.5V72M230.5 91.5H248.5M123 108.5C123 104 136 91.5168 140.5 91.5M140.5 91.5H208.5M102.5 91.416C100.812 91.4091 123 84.5 123 75.5M123 75.5V13C123 6.37258 128.373 1 135 1H218.5C225.127 1 230.5 6.37258 230.5 13V67.5V72M208.5 91.5C219.5 91.5 230.5 102 230.5 112M230.5 112V283.5C230.5 290.127 235.873 295.5 242.5 295.5H295.5C302.127 295.5 307.5 300.873 307.5 307.5V432C307.5 438.627 312.873 444 319.5 444H524.5C531.127 444 536.5 438.627 536.5 432V274C536.5 267.373 531.127 262 524.5 262H480.5C473.873 262 468.5 267.373 468.5 274V355.451C468.5 362.098 463.098 367.478 456.451 367.451L366.951 367.089C360.343 367.062 355 361.697 355 355.089V103.089C355 96.4428 360.402 91.0624 367.049 91.0893L456.549 91.4516C463.157 91.4784 468.5 96.8431 468.5 103.452V164.5C468.5 171.127 473.873 176.5 480.5 176.5H524.5C531.127 176.5 536.5 171.127 536.5 164.5V13C536.5 6.37258 531.127 1 524.5 1H338.5C331.873 1 326.5 6.37258 326.5 13V79.5C326.5 86.1274 321.127 91.5 314.5 91.5H248.5M230.5 72C230.5 82 239.5 91.5 248.5 91.5" stroke="black"/>
</svg>
