<svg width="3227" height="537" viewBox="0 0 3227 537" fill="none" xmlns="http://www.w3.org/2000/svg">
<path d="M230.5 137.5V158V329.5C230.5 336.127 235.873 341.5 242.5 341.5H295.5C302.127 341.5 307.5 346.873 307.5 353.5V478C307.5 484.627 312.873 490 319.5 490H524.5C531.127 490 536.5 484.627 536.5 478V320C536.5 313.373 531.127 308 524.5 308H480.5C473.873 308 468.5 313.373 468.5 320V401.451C468.5 408.098 463.098 413.478 456.451 413.451L366.951 413.089C360.343 413.062 355 407.697 355 401.089V149.089C355 142.443 360.402 137.062 367.049 137.089L456.549 137.452C463.157 137.478 468.5 142.843 468.5 149.452V210.5C468.5 217.127 473.873 222.5 480.5 222.5H524.5C531.127 222.5 536.5 217.127 536.5 210.5V59C536.5 52.3726 531.127 47 524.5 47H338.5C331.873 47 326.5 52.3726 326.5 59V125.5C326.5 132.127 321.127 137.5 314.5 137.5H248.5H230.5Z" fill="#0B0B0B"/>
<path d="M1 478C1 484.627 6.37258 490 13 490H111C117.627 490 123 484.627 123 478V154.5V137.5L13.0492 137.049C6.4026 137.022 1 142.403 1 149.049V478Z" fill="#0B0B0B"/>
<path d="M123 137.5V154.5C123 150 136 137.517 140.5 137.5H123Z" fill="#0B0B0B"/>
<path d="M230.5 59C230.5 52.3726 225.127 47 218.5 47H135C128.373 47 123 52.3726 123 59V121.5V137.5H140.5H208.5H230.5V118V113.5V59Z" fill="#0B0B0B"/>
<path d="M102.5 137.416L123 137.5V121.5C123 130.5 100.812 137.409 102.5 137.416Z" fill="#0B0B0B"/>
<path d="M230.5 137.5H208.5C219.5 137.5 230.5 148 230.5 158V137.5Z" fill="#0B0B0B"/>
<path d="M230.5 118V137.5H248.5C239.5 137.5 230.5 128 230.5 118Z" fill="#0B0B0B"/>
<path d="M123 137.5L13.0492 137.049C6.4026 137.022 1 142.403 1 149.049V478C1 484.627 6.37258 490 13 490H111C117.627 490 123 484.627 123 478V154.5M123 137.5V154.5M123 137.5H140.5M123 137.5V121.5M123 137.5C123 137.5 104.188 137.423 102.5 137.416M123 137.5L102.5 137.416M230.5 137.5H208.5M230.5 137.5V158M230.5 137.5V118M230.5 137.5H248.5M123 154.5C123 150 136 137.517 140.5 137.5M140.5 137.5H208.5M102.5 137.416C100.812 137.409 123 130.5 123 121.5M123 121.5V59C123 52.3726 128.373 47 135 47H218.5C225.127 47 230.5 52.3726 230.5 59V113.5V118M208.5 137.5C219.5 137.5 230.5 148 230.5 158M230.5 158V329.5C230.5 336.127 235.873 341.5 242.5 341.5H295.5C302.127 341.5 307.5 346.873 307.5 353.5V478C307.5 484.627 312.873 490 319.5 490H524.5C531.127 490 536.5 484.627 536.5 478V320C536.5 313.373 531.127 308 524.5 308H480.5C473.873 308 468.5 313.373 468.5 320V401.451C468.5 408.098 463.098 413.478 456.451 413.451L366.951 413.089C360.343 413.062 355 407.697 355 401.089V149.089C355 142.443 360.402 137.062 367.049 137.089L456.549 137.452C463.157 137.478 468.5 142.843 468.5 149.452V210.5C468.5 217.127 473.873 222.5 480.5 222.5H524.5C531.127 222.5 536.5 217.127 536.5 210.5V59C536.5 52.3726 531.127 47 524.5 47H338.5C331.873 47 326.5 52.3726 326.5 59V125.5C326.5 132.127 321.127 137.5 314.5 137.5H248.5M230.5 118C230.5 128 239.5 137.5 248.5 137.5" stroke="black"/>
<path d="M671.997 440V190.289H738.651V230.861C747.345 207.194 770.046 183.044 807.237 183.044C838.632 183.044 861.333 197.534 874.374 228.929C887.898 200.432 906.252 183.044 943.443 183.044C1007.2 183.044 1040.53 225.548 1040.53 290.27V440H972.906V308.624C972.906 275.297 965.661 242.936 934.266 242.936C906.252 242.936 889.83 274.331 889.83 322.148V440H824.142V308.624C824.142 275.297 820.278 242.936 785.502 242.936C749.277 242.936 740.583 283.508 740.583 331.325V440H671.997ZM1166.57 156.479H1096.05V95.138H1166.57V156.479ZM1095.57 440V190.289H1164.15V440H1095.57ZM1291.98 440H1223.39V95.138H1291.98V288.821L1381.33 190.289H1462.96L1358.15 298.964L1463.44 440H1383.75L1313.71 343.4L1291.98 364.169V440ZM1562.2 190.289V232.31C1576.21 199.949 1604.22 187.391 1638.03 186.425V251.147C1634.17 251.147 1612.92 250.664 1603.74 254.528C1583.46 260.324 1564.14 272.399 1564.14 329.393V440H1495.55V190.289H1562.2ZM1789.33 447.728C1717.36 447.728 1656.5 397.979 1656.5 314.903C1656.5 232.31 1717.36 183.044 1789.33 183.044C1860.81 183.044 1921.67 232.31 1921.67 314.903C1921.67 397.979 1860.81 447.728 1789.33 447.728ZM1722.67 314.903C1722.67 358.373 1748.75 394.115 1789.33 394.115C1829.9 394.115 1855.5 358.373 1855.5 314.903C1855.5 271.916 1829.9 236.174 1789.33 236.174C1748.75 236.174 1722.67 271.916 1722.67 314.903ZM2202.53 354.026C2192.87 414.884 2143.12 447.728 2083.71 447.728C2011.26 447.728 1948.47 398.462 1948.47 314.903C1948.47 230.861 2011.26 183.044 2083.71 183.044C2143.6 183.044 2192.87 216.854 2201.56 273.848H2137.81C2129.6 247.766 2108.34 236.174 2083.23 236.174C2041.69 236.174 2016.09 270.95 2016.09 315.386C2016.09 359.822 2041.69 394.598 2083.23 394.598C2108.34 394.598 2132.01 382.523 2139.26 354.026H2202.53ZM2246.94 95.138H2315.52V440H2246.94V95.138ZM2489.77 447.728C2417.8 447.728 2356.95 397.979 2356.95 314.903C2356.95 232.31 2417.8 183.044 2489.77 183.044C2561.26 183.044 2622.11 232.31 2622.11 314.903C2622.11 397.979 2561.26 447.728 2489.77 447.728ZM2423.12 314.903C2423.12 358.373 2449.2 394.115 2489.77 394.115C2530.34 394.115 2555.94 358.373 2555.94 314.903C2555.94 271.916 2530.34 236.174 2489.77 236.174C2449.2 236.174 2423.12 271.916 2423.12 314.903ZM2661.5 340.019V190.289H2729.6V321.665C2729.6 354.992 2736.36 387.353 2772.59 387.353C2804.95 387.353 2824.27 358.373 2824.27 298.964V190.289H2892.85V440H2826.2V398.462C2812.19 427.442 2789.97 447.245 2751.33 447.245C2687.1 447.245 2661.5 404.741 2661.5 340.019ZM3052.13 183.527C3094.64 183.527 3118.79 209.609 3126.52 228.929H3127V95.138H3197.52V440H3126.03V404.258H3125.55C3116.86 421.646 3094.16 446.762 3053.1 446.762C2986.93 446.762 2934.28 396.047 2934.28 314.903C2934.28 234.242 2985.96 183.527 3052.13 183.527ZM3002.39 314.903C3002.39 358.373 3025.09 394.115 3067.59 394.115C3112.03 394.115 3133.28 355.475 3133.28 314.903C3133.28 274.814 3110.09 236.657 3067.59 236.657C3025.57 236.657 3002.39 271.916 3002.39 314.903Z" fill="black"/>
</svg>
