<svg width="30" height="30" viewBox="0 0 30 30" fill="none" xmlns="http://www.w3.org/2000/svg">
<g clip-path="url(#clip0_156_416)">
<path fill-rule="evenodd" clip-rule="evenodd" d="M14.1029 0.0266612C14.3068 -0.00118103 14.9488 -0.00327041 15.1786 0.00278527C17.5053 0.0643166 19.7064 0.620327 21.7705 1.6768C24.7183 3.20749 27.0882 5.65162 28.524 8.6416C28.8756 9.38429 29.1083 10.0778 29.3589 10.8572C28.6297 11.5897 27.5957 12.4964 26.8195 13.22C25.0279 14.8769 23.2539 16.5526 21.4978 18.2469L21.2306 17.9899L9.81328 29.0748C9.33886 28.9481 8.56256 28.5732 8.11193 28.3568C9.55277 26.8597 11.0701 25.3996 12.5467 23.936L22.115 14.4613L21.9045 14.2549C23.1693 13.0354 24.6038 11.5974 25.889 10.4355L25.861 10.3588L25.7873 10.3319C25.5597 10.3971 24.7582 11.2319 24.5226 11.45C23.5774 12.3125 22.6466 13.1904 21.7306 14.0835L21.5147 13.8443C20.6053 14.8232 19.3169 16.0085 18.3401 16.95C16.8416 18.3608 15.335 19.8534 13.8499 21.2869L7.13581 27.7837L6.5738 27.3978L13.9686 20.2063C15.5615 18.6532 17.2271 17.0841 18.7884 15.5047C18.3158 15.4943 17.8188 15.5036 17.344 15.506C16.6015 16.2585 15.7608 17.0383 14.9937 17.777L9.37807 23.1571C8.14982 24.3263 6.85007 25.5274 5.66152 26.7281C5.5584 26.6501 5.45794 26.5688 5.36026 26.4842C-4.93246 17.6848 0.477936 1.0548 14.1029 0.0266612ZM29.3902 11.1457C29.4573 11.2153 29.5179 11.4839 29.546 11.5955C29.8228 12.6936 29.9399 13.8268 29.959 14.9568C29.2791 15.6378 28.448 16.3316 27.7432 17.016C25.9514 18.7561 24.0733 20.4665 22.3147 22.2366L22.1225 22.0243L13.9602 29.9565C13.2481 29.9012 12.7039 29.8266 11.9987 29.705L11.1783 29.5238L22.0751 18.7554L21.8313 18.5084C22.619 17.7216 23.4595 16.9317 24.259 16.1497L29.3902 11.1457ZM29.9169 15.286L29.9337 15.3029C30.0181 15.53 29.83 16.9787 29.7817 17.292C29.1622 21.2374 26.991 24.7734 23.7493 27.1161C21.679 28.624 19.4028 29.5133 16.8687 29.855C16.531 29.9005 15.6647 30.0042 15.3507 29.955C16.0113 29.2908 16.7092 28.6402 17.38 27.9845L20.7435 24.6791L22.1311 23.3323C22.2619 23.2048 22.6771 22.8138 22.7671 22.6835C22.736 22.6187 22.7267 22.61 22.679 22.5589L22.6342 22.5113C22.6769 22.3391 29.1579 16.0305 29.9169 15.286Z" fill="#FEFEFE"/>
</g>
<defs>
<clipPath id="clip0_156_416">
<rect width="30" height="30" fill="white"/>
</clipPath>
</defs>
</svg>
